<mxfile host="Electron" agent="Mozilla/5.0 (Windows NT 10.0; Win64; x64) AppleWebKit/537.36 (KHTML, like Gecko) draw.io/26.0.16 Chrome/132.0.6834.196 Electron/34.2.0 Safari/537.36" version="26.0.16">
  <diagram name="Page-1" id="_WNdZLd5jNZG4z9xJk0x">
    <mxGraphModel dx="1674" dy="836" grid="1" gridSize="10" guides="1" tooltips="1" connect="1" arrows="1" fold="1" page="1" pageScale="1" pageWidth="1169" pageHeight="827" math="0" shadow="0">
      <root>
        <mxCell id="0" />
        <mxCell id="1" parent="0" />
        <mxCell id="-OenLeJC5BA-6mcwm2Jt-36" value="" style="group" parent="1" vertex="1" connectable="0">
          <mxGeometry x="40" y="40" width="840" height="320" as="geometry" />
        </mxCell>
        <mxCell id="-OenLeJC5BA-6mcwm2Jt-2" value="Organizzatore&lt;div&gt;&lt;br&gt;&lt;/div&gt;" style="shape=umlActor;verticalLabelPosition=bottom;verticalAlign=top;html=1;" parent="-OenLeJC5BA-6mcwm2Jt-36" vertex="1">
          <mxGeometry y="50" width="30" height="60" as="geometry" />
        </mxCell>
        <mxCell id="-OenLeJC5BA-6mcwm2Jt-3" value="" style="html=1;points=[[0,0,0,0,5],[0,1,0,0,-5],[1,0,0,0,5],[1,1,0,0,-5]];perimeter=orthogonalPerimeter;outlineConnect=0;targetShapes=umlLifeline;portConstraint=eastwest;newEdgeStyle={&quot;curved&quot;:0,&quot;rounded&quot;:0};" parent="-OenLeJC5BA-6mcwm2Jt-36" vertex="1">
          <mxGeometry x="10" y="140" width="10" height="110" as="geometry" />
        </mxCell>
        <mxCell id="-OenLeJC5BA-6mcwm2Jt-4" value="login" style="html=1;verticalAlign=bottom;endArrow=block;edgeStyle=elbowEdgeStyle;elbow=vertical;curved=0;rounded=0;" parent="-OenLeJC5BA-6mcwm2Jt-36" edge="1">
          <mxGeometry x="-0.0028" relative="1" as="geometry">
            <mxPoint x="20" y="150" as="sourcePoint" />
            <Array as="points">
              <mxPoint x="105" y="150" />
            </Array>
            <mxPoint x="125" y="150" as="targetPoint" />
            <mxPoint as="offset" />
          </mxGeometry>
        </mxCell>
        <mxCell id="-OenLeJC5BA-6mcwm2Jt-5" value="" style="group" parent="-OenLeJC5BA-6mcwm2Jt-36" vertex="1" connectable="0">
          <mxGeometry x="80" width="100" height="210" as="geometry" />
        </mxCell>
        <mxCell id="-OenLeJC5BA-6mcwm2Jt-6" value="LoginPage" style="shape=umlLifeline;perimeter=lifelinePerimeter;whiteSpace=wrap;html=1;container=0;dropTarget=0;collapsible=0;recursiveResize=0;outlineConnect=0;portConstraint=eastwest;newEdgeStyle={&quot;edgeStyle&quot;:&quot;elbowEdgeStyle&quot;,&quot;elbow&quot;:&quot;vertical&quot;,&quot;curved&quot;:0,&quot;rounded&quot;:0};" parent="-OenLeJC5BA-6mcwm2Jt-5" vertex="1">
          <mxGeometry width="100" height="210" as="geometry" />
        </mxCell>
        <mxCell id="-OenLeJC5BA-6mcwm2Jt-7" value="" style="html=1;points=[[0,0,0,0,5],[0,1,0,0,-5],[1,0,0,0,5],[1,1,0,0,-5]];perimeter=orthogonalPerimeter;outlineConnect=0;targetShapes=umlLifeline;portConstraint=eastwest;newEdgeStyle={&quot;curved&quot;:0,&quot;rounded&quot;:0};" parent="-OenLeJC5BA-6mcwm2Jt-5" vertex="1">
          <mxGeometry x="45" y="130" width="10" height="80" as="geometry" />
        </mxCell>
        <mxCell id="-OenLeJC5BA-6mcwm2Jt-8" value="return" style="html=1;verticalAlign=bottom;endArrow=open;dashed=1;endSize=8;curved=0;rounded=0;entryX=1.5;entryY=0.625;entryDx=0;entryDy=0;entryPerimeter=0;" parent="-OenLeJC5BA-6mcwm2Jt-5" edge="1">
          <mxGeometry relative="1" as="geometry">
            <mxPoint x="152.5" y="190" as="sourcePoint" />
            <mxPoint x="55" y="190" as="targetPoint" />
          </mxGeometry>
        </mxCell>
        <mxCell id="-OenLeJC5BA-6mcwm2Jt-9" value="dispatch" style="html=1;verticalAlign=bottom;endArrow=block;edgeStyle=elbowEdgeStyle;elbow=vertical;curved=0;rounded=0;" parent="-OenLeJC5BA-6mcwm2Jt-36" source="-OenLeJC5BA-6mcwm2Jt-7" target="-OenLeJC5BA-6mcwm2Jt-12" edge="1">
          <mxGeometry relative="1" as="geometry">
            <mxPoint x="140" y="150" as="sourcePoint" />
            <Array as="points">
              <mxPoint x="190" y="150" />
            </Array>
            <mxPoint x="230" y="150" as="targetPoint" />
          </mxGeometry>
        </mxCell>
        <mxCell id="-OenLeJC5BA-6mcwm2Jt-10" value="" style="group" parent="-OenLeJC5BA-6mcwm2Jt-36" vertex="1" connectable="0">
          <mxGeometry x="190" width="100" height="270" as="geometry" />
        </mxCell>
        <mxCell id="-OenLeJC5BA-6mcwm2Jt-11" value="EventsPage" style="shape=umlLifeline;perimeter=lifelinePerimeter;whiteSpace=wrap;html=1;container=0;dropTarget=0;collapsible=0;recursiveResize=0;outlineConnect=0;portConstraint=eastwest;newEdgeStyle={&quot;edgeStyle&quot;:&quot;elbowEdgeStyle&quot;,&quot;elbow&quot;:&quot;vertical&quot;,&quot;curved&quot;:0,&quot;rounded&quot;:0};" parent="-OenLeJC5BA-6mcwm2Jt-10" vertex="1">
          <mxGeometry width="100" height="210" as="geometry" />
        </mxCell>
        <mxCell id="-OenLeJC5BA-6mcwm2Jt-12" value="" style="html=1;points=[[0,0,0,0,5],[0,1,0,0,-5],[1,0,0,0,5],[1,1,0,0,-5]];perimeter=orthogonalPerimeter;outlineConnect=0;targetShapes=umlLifeline;portConstraint=eastwest;newEdgeStyle={&quot;curved&quot;:0,&quot;rounded&quot;:0};" parent="-OenLeJC5BA-6mcwm2Jt-10" vertex="1">
          <mxGeometry x="45" y="130" width="10" height="120" as="geometry" />
        </mxCell>
        <mxCell id="-OenLeJC5BA-6mcwm2Jt-13" value="creaEvento" style="html=1;verticalAlign=bottom;endArrow=block;edgeStyle=elbowEdgeStyle;elbow=vertical;curved=0;rounded=0;" parent="-OenLeJC5BA-6mcwm2Jt-36" edge="1">
          <mxGeometry x="-0.0028" relative="1" as="geometry">
            <mxPoint x="250" y="150" as="sourcePoint" />
            <Array as="points">
              <mxPoint x="335" y="150" />
            </Array>
            <mxPoint x="355" y="150" as="targetPoint" />
            <mxPoint as="offset" />
          </mxGeometry>
        </mxCell>
        <mxCell id="-OenLeJC5BA-6mcwm2Jt-14" value="" style="group" parent="-OenLeJC5BA-6mcwm2Jt-36" vertex="1" connectable="0">
          <mxGeometry x="300" width="100" height="210" as="geometry" />
        </mxCell>
        <mxCell id="-OenLeJC5BA-6mcwm2Jt-15" value="AddEventPage" style="shape=umlLifeline;perimeter=lifelinePerimeter;whiteSpace=wrap;html=1;container=0;dropTarget=0;collapsible=0;recursiveResize=0;outlineConnect=0;portConstraint=eastwest;newEdgeStyle={&quot;edgeStyle&quot;:&quot;elbowEdgeStyle&quot;,&quot;elbow&quot;:&quot;vertical&quot;,&quot;curved&quot;:0,&quot;rounded&quot;:0};" parent="-OenLeJC5BA-6mcwm2Jt-14" vertex="1">
          <mxGeometry width="100" height="210" as="geometry" />
        </mxCell>
        <mxCell id="-OenLeJC5BA-6mcwm2Jt-16" value="" style="html=1;points=[[0,0,0,0,5],[0,1,0,0,-5],[1,0,0,0,5],[1,1,0,0,-5]];perimeter=orthogonalPerimeter;outlineConnect=0;targetShapes=umlLifeline;portConstraint=eastwest;newEdgeStyle={&quot;curved&quot;:0,&quot;rounded&quot;:0};" parent="-OenLeJC5BA-6mcwm2Jt-14" vertex="1">
          <mxGeometry x="45" y="130" width="10" height="80" as="geometry" />
        </mxCell>
        <mxCell id="-OenLeJC5BA-6mcwm2Jt-17" value="creaEvento" style="html=1;verticalAlign=bottom;endArrow=block;edgeStyle=elbowEdgeStyle;elbow=vertical;curved=0;rounded=0;" parent="-OenLeJC5BA-6mcwm2Jt-36" source="-OenLeJC5BA-6mcwm2Jt-16" target="-OenLeJC5BA-6mcwm2Jt-20" edge="1">
          <mxGeometry relative="1" as="geometry">
            <mxPoint x="360" y="150" as="sourcePoint" />
            <Array as="points">
              <mxPoint x="410" y="150" />
            </Array>
            <mxPoint x="450" y="150" as="targetPoint" />
            <mxPoint as="offset" />
          </mxGeometry>
        </mxCell>
        <mxCell id="-OenLeJC5BA-6mcwm2Jt-18" value="" style="group" parent="-OenLeJC5BA-6mcwm2Jt-36" vertex="1" connectable="0">
          <mxGeometry x="410" width="100" height="260" as="geometry" />
        </mxCell>
        <mxCell id="-OenLeJC5BA-6mcwm2Jt-19" value="Controller" style="shape=umlLifeline;perimeter=lifelinePerimeter;whiteSpace=wrap;html=1;container=0;dropTarget=0;collapsible=0;recursiveResize=0;outlineConnect=0;portConstraint=eastwest;newEdgeStyle={&quot;edgeStyle&quot;:&quot;elbowEdgeStyle&quot;,&quot;elbow&quot;:&quot;vertical&quot;,&quot;curved&quot;:0,&quot;rounded&quot;:0};" parent="-OenLeJC5BA-6mcwm2Jt-18" vertex="1">
          <mxGeometry width="100" height="210" as="geometry" />
        </mxCell>
        <mxCell id="-OenLeJC5BA-6mcwm2Jt-20" value="" style="html=1;points=[[0,0,0,0,5],[0,1,0,0,-5],[1,0,0,0,5],[1,1,0,0,-5]];perimeter=orthogonalPerimeter;outlineConnect=0;targetShapes=umlLifeline;portConstraint=eastwest;newEdgeStyle={&quot;curved&quot;:0,&quot;rounded&quot;:0};" parent="-OenLeJC5BA-6mcwm2Jt-18" vertex="1">
          <mxGeometry x="45" y="130" width="10" height="120" as="geometry" />
        </mxCell>
        <mxCell id="-OenLeJC5BA-6mcwm2Jt-25" value="" style="group" parent="-OenLeJC5BA-6mcwm2Jt-36" vertex="1" connectable="0">
          <mxGeometry x="520" width="100" height="280" as="geometry" />
        </mxCell>
        <mxCell id="-OenLeJC5BA-6mcwm2Jt-26" value="Persistance" style="shape=umlLifeline;perimeter=lifelinePerimeter;whiteSpace=wrap;html=1;container=0;dropTarget=0;collapsible=0;recursiveResize=0;outlineConnect=0;portConstraint=eastwest;newEdgeStyle={&quot;edgeStyle&quot;:&quot;elbowEdgeStyle&quot;,&quot;elbow&quot;:&quot;vertical&quot;,&quot;curved&quot;:0,&quot;rounded&quot;:0};" parent="-OenLeJC5BA-6mcwm2Jt-25" vertex="1">
          <mxGeometry width="100" height="210" as="geometry" />
        </mxCell>
        <mxCell id="-OenLeJC5BA-6mcwm2Jt-27" value="" style="html=1;points=[[0,0,0,0,5],[0,1,0,0,-5],[1,0,0,0,5],[1,1,0,0,-5]];perimeter=orthogonalPerimeter;outlineConnect=0;targetShapes=umlLifeline;portConstraint=eastwest;newEdgeStyle={&quot;curved&quot;:0,&quot;rounded&quot;:0};" parent="-OenLeJC5BA-6mcwm2Jt-25" vertex="1">
          <mxGeometry x="45" y="130" width="10" height="120" as="geometry" />
        </mxCell>
        <mxCell id="-OenLeJC5BA-6mcwm2Jt-28" value="creaEvento" style="html=1;verticalAlign=bottom;endArrow=block;edgeStyle=elbowEdgeStyle;elbow=vertical;curved=0;rounded=0;" parent="-OenLeJC5BA-6mcwm2Jt-25" edge="1">
          <mxGeometry relative="1" as="geometry">
            <mxPoint x="-55" y="150" as="sourcePoint" />
            <Array as="points">
              <mxPoint y="150" />
            </Array>
            <mxPoint x="45" y="150" as="targetPoint" />
          </mxGeometry>
        </mxCell>
        <mxCell id="-OenLeJC5BA-6mcwm2Jt-29" value="" style="group" parent="-OenLeJC5BA-6mcwm2Jt-36" vertex="1" connectable="0">
          <mxGeometry x="630" width="100" height="270" as="geometry" />
        </mxCell>
        <mxCell id="-OenLeJC5BA-6mcwm2Jt-30" value="EventoDAO" style="shape=umlLifeline;perimeter=lifelinePerimeter;whiteSpace=wrap;html=1;container=0;dropTarget=0;collapsible=0;recursiveResize=0;outlineConnect=0;portConstraint=eastwest;newEdgeStyle={&quot;edgeStyle&quot;:&quot;elbowEdgeStyle&quot;,&quot;elbow&quot;:&quot;vertical&quot;,&quot;curved&quot;:0,&quot;rounded&quot;:0};" parent="-OenLeJC5BA-6mcwm2Jt-29" vertex="1">
          <mxGeometry width="100" height="210" as="geometry" />
        </mxCell>
        <mxCell id="-OenLeJC5BA-6mcwm2Jt-31" value="" style="html=1;points=[[0,0,0,0,5],[0,1,0,0,-5],[1,0,0,0,5],[1,1,0,0,-5]];perimeter=orthogonalPerimeter;outlineConnect=0;targetShapes=umlLifeline;portConstraint=eastwest;newEdgeStyle={&quot;curved&quot;:0,&quot;rounded&quot;:0};" parent="-OenLeJC5BA-6mcwm2Jt-29" vertex="1">
          <mxGeometry x="45" y="130" width="10" height="120" as="geometry" />
        </mxCell>
        <mxCell id="-OenLeJC5BA-6mcwm2Jt-32" value="addEvento" style="html=1;verticalAlign=bottom;endArrow=block;edgeStyle=elbowEdgeStyle;elbow=vertical;curved=0;rounded=0;" parent="-OenLeJC5BA-6mcwm2Jt-29" edge="1">
          <mxGeometry relative="1" as="geometry">
            <mxPoint x="-55" y="150" as="sourcePoint" />
            <Array as="points">
              <mxPoint y="150" />
            </Array>
            <mxPoint x="45" y="150" as="targetPoint" />
          </mxGeometry>
        </mxCell>
        <mxCell id="-OenLeJC5BA-6mcwm2Jt-33" value="loadEvents" style="html=1;verticalAlign=bottom;endArrow=block;edgeStyle=elbowEdgeStyle;elbow=vertical;curved=0;rounded=0;" parent="-OenLeJC5BA-6mcwm2Jt-36" source="-OenLeJC5BA-6mcwm2Jt-20" target="-OenLeJC5BA-6mcwm2Jt-12" edge="1">
          <mxGeometry x="-0.0028" relative="1" as="geometry">
            <mxPoint x="460" y="250" as="sourcePoint" />
            <Array as="points">
              <mxPoint x="350" y="230" />
            </Array>
            <mxPoint x="410" y="250" as="targetPoint" />
            <mxPoint as="offset" />
          </mxGeometry>
        </mxCell>
        <mxCell id="-OenLeJC5BA-6mcwm2Jt-34" value="getEventi" style="html=1;verticalAlign=bottom;endArrow=block;edgeStyle=elbowEdgeStyle;elbow=vertical;curved=0;rounded=0;" parent="-OenLeJC5BA-6mcwm2Jt-36" source="-OenLeJC5BA-6mcwm2Jt-27" target="-OenLeJC5BA-6mcwm2Jt-20" edge="1">
          <mxGeometry relative="1" as="geometry">
            <mxPoint x="475" y="160" as="sourcePoint" />
            <Array as="points">
              <mxPoint x="520" y="230" />
            </Array>
            <mxPoint x="575" y="160" as="targetPoint" />
          </mxGeometry>
        </mxCell>
        <mxCell id="-OenLeJC5BA-6mcwm2Jt-35" value="getAllDate" style="html=1;verticalAlign=bottom;endArrow=block;edgeStyle=elbowEdgeStyle;elbow=vertical;curved=0;rounded=0;" parent="-OenLeJC5BA-6mcwm2Jt-36" source="-OenLeJC5BA-6mcwm2Jt-31" target="-OenLeJC5BA-6mcwm2Jt-27" edge="1">
          <mxGeometry x="-0.0028" relative="1" as="geometry">
            <mxPoint x="355" y="240" as="sourcePoint" />
            <Array as="points">
              <mxPoint x="630" y="230" />
            </Array>
            <mxPoint x="135" y="240" as="targetPoint" />
            <mxPoint as="offset" />
          </mxGeometry>
        </mxCell>
      </root>
    </mxGraphModel>
  </diagram>
</mxfile>
